<svg width="54" height="54" viewBox="0 0 54 54" fill="none" xmlns="http://www.w3.org/2000/svg">
<g opacity="0.2" clip-path="url(#clip0_1_469)">
<path d="M36.5 53.5C27.13 53.5 19.5 45.87 19.5 36.5C19.5 27.13 27.13 19.5 36.5 19.5C45.87 19.5 53.5 27.13 53.5 36.5C53.5 45.87 45.87 53.5 36.5 53.5ZM36.5 27.5C31.54 27.5 27.5 31.54 27.5 36.5C27.5 41.46 31.54 45.5 36.5 45.5C41.46 45.5 45.5 41.46 45.5 36.5C45.5 31.54 41.46 27.5 36.5 27.5Z" fill="#D6377F"/>
<path d="M18 36C8.08 36 0 27.92 0 18C0 8.08 8.08 0 18 0C27.92 0 36 8.08 36 18C36 27.92 27.92 36 18 36ZM18 2C9.18 2 2 9.18 2 18C2 26.82 9.18 34 18 34C26.82 34 34 26.82 34 18C34 9.18 26.82 2 18 2ZM18 28C12.49 28 8 23.51 8 18C8 12.49 12.49 8 18 8C23.51 8 28 12.49 28 18C28 23.51 23.51 28 18 28ZM18 10C13.59 10 10 13.59 10 18C10 22.41 13.59 26 18 26C22.41 26 26 22.41 26 18C26 13.59 22.41 10 18 10Z" fill="#FFAF00"/>
</g>
<defs>
<clipPath id="clip0_1_469">
<rect width="53.5" height="53.5" fill="white"/>
</clipPath>
</defs>
</svg>
