<svg width="101" height="110" viewBox="0 0 101 110" fill="none" xmlns="http://www.w3.org/2000/svg">
<g clip-path="url(#clip0_1_22)">
<path d="M101 108.231H81.5017V110H101V108.231Z" fill="url(#paint0_linear_1_22)"/>
<path d="M101 98.3969H65.159V100.166H101V98.3969Z" fill="url(#paint1_linear_1_22)"/>
<path d="M100.982 88.5448H47.0534V90.3136H100.982V88.5448Z" fill="url(#paint2_linear_1_22)"/>
<path d="M101 78.7104H28.1721V80.4792H101V78.7104Z" fill="url(#paint3_linear_1_22)"/>
<path d="M100.982 68.876H12.5699V70.6447H100.982V68.876Z" fill="url(#paint4_linear_1_22)"/>
<path d="M101 59.0416L0 59.0416L0 60.8104L101 60.8104V59.0416Z" fill="url(#paint5_linear_1_22)"/>
<path d="M101 49.1896L0 49.1896L0 50.9583L101 50.9583V49.1896Z" fill="url(#paint6_linear_1_22)"/>
<path d="M100.982 39.3552L12.5699 39.3552V41.124L100.982 41.124V39.3552Z" fill="url(#paint7_linear_1_22)"/>
<path d="M101 29.5209L28.1721 29.5209V31.2896L101 31.2896V29.5209Z" fill="url(#paint8_linear_1_22)"/>
<path d="M100.982 19.6864L47.0534 19.6864V21.4552L100.982 21.4552V19.6864Z" fill="url(#paint9_linear_1_22)"/>
<path d="M101 9.83435L65.159 9.83435V11.6031L101 11.6031V9.83435Z" fill="url(#paint10_linear_1_22)"/>
<path d="M101 0L81.5017 0V1.76877L101 1.76877V0Z" fill="url(#paint11_linear_1_22)"/>
</g>
<defs>
<linearGradient id="paint0_linear_1_22" x1="91.2508" y1="108.231" x2="91.2508" y2="110" gradientUnits="userSpaceOnUse">
<stop stop-color="#61E8EC"/>
<stop offset="1" stop-color="#1F2636" stop-opacity="0"/>
</linearGradient>
<linearGradient id="paint1_linear_1_22" x1="83.0795" y1="98.3969" x2="83.0795" y2="100.166" gradientUnits="userSpaceOnUse">
<stop stop-color="#61E8EC"/>
<stop offset="1" stop-color="#1F2636" stop-opacity="0"/>
</linearGradient>
<linearGradient id="paint2_linear_1_22" x1="74.0179" y1="88.5448" x2="74.0179" y2="90.3136" gradientUnits="userSpaceOnUse">
<stop stop-color="#61E8EC"/>
<stop offset="1" stop-color="#1F2636" stop-opacity="0"/>
</linearGradient>
<linearGradient id="paint3_linear_1_22" x1="64.5861" y1="78.7104" x2="64.5861" y2="80.4792" gradientUnits="userSpaceOnUse">
<stop stop-color="#61E8EC"/>
<stop offset="1" stop-color="#1F2636" stop-opacity="0"/>
</linearGradient>
<linearGradient id="paint4_linear_1_22" x1="56.7761" y1="68.876" x2="56.7761" y2="70.6447" gradientUnits="userSpaceOnUse">
<stop stop-color="#61E8EC"/>
<stop offset="1" stop-color="#1F2636" stop-opacity="0"/>
</linearGradient>
<linearGradient id="paint5_linear_1_22" x1="50.5" y1="59.0416" x2="50.5" y2="60.8104" gradientUnits="userSpaceOnUse">
<stop stop-color="#61E8EC"/>
<stop offset="1" stop-color="#1F2636" stop-opacity="0"/>
</linearGradient>
<linearGradient id="paint6_linear_1_22" x1="50.5" y1="49.1896" x2="50.5" y2="50.9583" gradientUnits="userSpaceOnUse">
<stop stop-color="#61E8EC"/>
<stop offset="1" stop-color="#1F2636" stop-opacity="0"/>
</linearGradient>
<linearGradient id="paint7_linear_1_22" x1="56.7761" y1="39.3552" x2="56.7761" y2="41.124" gradientUnits="userSpaceOnUse">
<stop stop-color="#61E8EC"/>
<stop offset="1" stop-color="#1F2636" stop-opacity="0"/>
</linearGradient>
<linearGradient id="paint8_linear_1_22" x1="64.5861" y1="29.5209" x2="64.5861" y2="31.2896" gradientUnits="userSpaceOnUse">
<stop stop-color="#61E8EC"/>
<stop offset="1" stop-color="#1F2636" stop-opacity="0"/>
</linearGradient>
<linearGradient id="paint9_linear_1_22" x1="74.0179" y1="19.6864" x2="74.0179" y2="21.4552" gradientUnits="userSpaceOnUse">
<stop stop-color="#61E8EC"/>
<stop offset="1" stop-color="#1F2636" stop-opacity="0"/>
</linearGradient>
<linearGradient id="paint10_linear_1_22" x1="83.0795" y1="9.83435" x2="83.0795" y2="11.6031" gradientUnits="userSpaceOnUse">
<stop stop-color="#61E8EC"/>
<stop offset="1" stop-color="#1F2636" stop-opacity="0"/>
</linearGradient>
<linearGradient id="paint11_linear_1_22" x1="91.2508" y1="0" x2="91.2508" y2="1.76877" gradientUnits="userSpaceOnUse">
<stop stop-color="#61E8EC"/>
<stop offset="1" stop-color="#1F2636" stop-opacity="0"/>
</linearGradient>
<clipPath id="clip0_1_22">
<rect width="101" height="110" fill="white"/>
</clipPath>
</defs>
</svg>
