<svg width="35" height="40" viewBox="0 0 35 40" fill="none" xmlns="http://www.w3.org/2000/svg">
<path d="M34.1867 19.7469C33.6618 19.2015 33.0709 18.9844 32.4705 18.9844C31.3288 18.9844 30.1516 19.7676 29.3221 20.5661C29.3081 20.5795 25.319 23.8878 23.9633 25.2252C23.7172 25.4676 23.2382 25.6641 22.8928 25.6641C21.5683 27.1487 19.6422 28.0859 17.5008 28.0859C15.3594 28.0859 13.433 27.1487 12.1088 25.6641H11.9914C11.6462 25.6641 11.1552 25.4808 10.8946 25.2542L5.56342 20.6209C4.7495 19.838 3.59772 19.0126 2.48087 19.0123C1.9845 19.0123 1.49509 19.1755 1.04502 19.5779C-0.530035 20.9849 0.466901 22.8173 1.71606 24.0137C1.742 24.0377 7.7043 29.7494 7.7043 29.7494C7.7043 29.7494 10.0491 32.236 10.216 33.7433L10.2157 37.3437C10.2157 38.8107 11.4048 39.9999 12.872 39.9999H22.4619C23.929 39.9999 25.1182 38.8108 25.1182 37.3437V33.743C25.2842 32.2357 27.4845 29.7492 27.4845 29.7492L33.3243 23.9546C34.3907 22.8578 35.4599 21.0721 34.1867 19.747L34.1867 19.7469Z" fill="#FD6585"/>
<path d="M23.477 20.8599C23.477 24.1606 20.8013 26.8367 17.5002 26.8367C14.1995 26.8367 11.5237 24.1606 11.5237 20.8599C11.5237 17.5591 14.1995 14.8834 17.5002 14.8834C20.8013 14.8834 23.477 17.5591 23.477 20.8599Z" fill="#FD6585"/>
<path d="M6.24995 13.4369C6.24995 15.1629 4.85096 16.5619 3.12498 16.5619C1.39899 16.5619 0 15.1629 0 13.4369C0 11.7109 1.39899 10.312 3.12498 10.312C4.85096 10.312 6.24995 11.7109 6.24995 13.4369Z" fill="#FD6585"/>
<path d="M20.625 3.12498C20.625 4.85096 19.226 6.24995 17.5 6.24995C15.774 6.24995 14.375 4.85096 14.375 3.12498C14.375 1.39899 15.774 0 17.5 0C19.226 0 20.625 1.39899 20.625 3.12498Z" fill="#FD6585"/>
<path d="M8.7478 3.4375C8.18112 3.4375 7.60717 3.59151 7.09153 3.9149C5.62918 4.8306 5.18554 6.75752 6.10239 8.22122C6.69558 9.1685 7.71231 9.68742 8.75223 9.68742C9.31891 9.68742 9.89258 9.53341 10.4085 9.21003C11.8708 8.29432 12.3145 6.36741 11.3976 4.9037C10.8044 3.95642 9.78772 3.4375 8.7478 3.4375Z" fill="#FD6585"/>
<path d="M24.5905 8.89703C25.1067 9.22068 25.6803 9.3747 26.2473 9.3747C27.2869 9.3747 28.3033 8.85601 28.8968 7.909C29.8142 6.44558 29.3709 4.51867 27.9091 3.60267C27.3929 3.2793 26.819 3.125 26.252 3.125C25.2124 3.125 24.196 3.64369 23.6025 4.5907C22.6854 6.05412 23.1284 7.98075 24.5905 8.89703Z" fill="#FD6585"/>
<path d="M34.9997 13.4369C34.9997 15.1629 33.6007 16.5619 31.8747 16.5619C30.1487 16.5619 28.7497 15.1629 28.7497 13.4369C28.7497 11.7109 30.1487 10.312 31.8747 10.312C33.6007 10.312 34.9997 11.7109 34.9997 13.4369Z" fill="#FD6585"/>
</svg>
