<svg width="12" height="18" viewBox="0 0 12 18" fill="none" xmlns="http://www.w3.org/2000/svg">
<path d="M6.00001 12.7292C7.37501 11.6181 8.41334 10.5486 9.11501 9.52085C9.81612 8.49308 10.1667 7.5278 10.1667 6.62502C10.1667 5.84724 10.0245 5.18391 9.74001 4.63502C9.45501 4.08669 9.10417 3.64224 8.68751 3.30169C8.27084 2.96169 7.81945 2.7153 7.33334 2.56252C6.84723 2.40974 6.40278 2.33335 6.00001 2.33335C5.59723 2.33335 5.15278 2.40974 4.66667 2.56252C4.18056 2.7153 3.72917 2.96169 3.31251 3.30169C2.89584 3.64224 2.54528 4.08669 2.26084 4.63502C1.97584 5.18391 1.83334 5.84724 1.83334 6.62502C1.83334 7.5278 2.18389 8.49308 2.88501 9.52085C3.58667 10.5486 4.62501 11.6181 6.00001 12.7292ZM6.00001 14.8334C4.04167 13.3889 2.57973 11.9861 1.61417 10.625C0.649172 9.26391 0.166672 7.93058 0.166672 6.62502C0.166672 5.63891 0.343894 4.77419 0.698338 4.03085C1.05223 3.28808 1.50695 2.66669 2.06251 2.16669C2.61806 1.66669 3.24306 1.29169 3.93751 1.04169C4.63195 0.791687 5.31945 0.666687 6.00001 0.666687C6.68056 0.666687 7.36806 0.791687 8.06251 1.04169C8.75695 1.29169 9.38195 1.66669 9.93751 2.16669C10.4931 2.66669 10.9481 3.28808 11.3025 4.03085C11.6564 4.77419 11.8333 5.63891 11.8333 6.62502C11.8333 7.93058 11.3506 9.26391 10.385 10.625C9.42 11.9861 7.95834 13.3889 6.00001 14.8334ZM6.00001 8.16669C6.45834 8.16669 6.85084 8.00335 7.17751 7.67669C7.50362 7.35058 7.66667 6.95835 7.66667 6.50002C7.66667 6.04169 7.50362 5.64919 7.17751 5.32252C6.85084 4.99641 6.45834 4.83335 6.00001 4.83335C5.54167 4.83335 5.14945 4.99641 4.82334 5.32252C4.49667 5.64919 4.33334 6.04169 4.33334 6.50002C4.33334 6.95835 4.49667 7.35058 4.82334 7.67669C5.14945 8.00335 5.54167 8.16669 6.00001 8.16669ZM0.166672 17.3334V15.6667H11.8333V17.3334H0.166672Z" fill="#676767"/>
</svg>
