<svg width="20" height="20" viewBox="0 0 20 20" fill="none" xmlns="http://www.w3.org/2000/svg">
<mask id="mask0_1_124" style="mask-type:alpha" maskUnits="userSpaceOnUse" x="0" y="0" width="20" height="20">
<rect width="20" height="20" fill="#E61053"/>
</mask>
<g mask="url(#mask0_1_124)">
<path d="M10.0001 18.3333C8.95843 18.3333 7.98287 18.1355 7.07343 17.74C6.16342 17.3439 5.37176 16.8089 4.69843 16.135C4.02454 15.4616 3.48954 14.67 3.09342 13.76C2.69787 12.8505 2.50009 11.875 2.50009 10.8333C2.50009 9.79165 2.69787 8.81581 3.09342 7.90581C3.48954 6.99637 4.02454 6.2047 4.69843 5.53081C5.37176 4.85748 6.16342 4.32304 7.07343 3.92748C7.98287 3.53137 8.95843 3.33331 10.0001 3.33331C11.0418 3.33331 12.0176 3.53137 12.9276 3.92748C13.837 4.32304 14.6287 4.85748 15.3026 5.53081C15.9759 6.2047 16.5106 6.99637 16.9068 7.90581C17.3023 8.81581 17.5001 9.79165 17.5001 10.8333C17.5001 11.875 17.3023 12.8505 16.9068 13.76C16.5106 14.67 15.9759 15.4616 15.3026 16.135C14.6287 16.8089 13.837 17.3439 12.9276 17.74C12.0176 18.1355 11.0418 18.3333 10.0001 18.3333ZM12.3334 14.3333L13.5001 13.1666L10.8334 10.5V6.66665H9.16676V11.1666L12.3334 14.3333ZM4.66676 1.95831L5.83343 3.12498L2.29176 6.66665L1.12509 5.49998L4.66676 1.95831ZM15.3334 1.95831L18.8751 5.49998L17.7084 6.66665L14.1668 3.12498L15.3334 1.95831ZM10.0001 16.6666C11.6251 16.6666 13.0034 16.1005 14.1351 14.9683C15.2673 13.8366 15.8334 12.4583 15.8334 10.8333C15.8334 9.20831 15.2673 7.8297 14.1351 6.69748C13.0034 5.56581 11.6251 4.99998 10.0001 4.99998C8.37509 4.99998 6.99676 5.56581 5.86509 6.69748C4.73287 7.8297 4.16676 9.20831 4.16676 10.8333C4.16676 12.4583 4.73287 13.8366 5.86509 14.9683C6.99676 16.1005 8.37509 16.6666 10.0001 16.6666Z" fill="#676767"/>
</g>
</svg>
