<svg width="64" height="79" viewBox="0 0 64 79" fill="none" xmlns="http://www.w3.org/2000/svg">
<g opacity="0.32" clip-path="url(#clip0_1_302)">
<path d="M2.2 4.4C3.41503 4.4 4.4 3.41503 4.4 2.2C4.4 0.984974 3.41503 0 2.2 0C0.984974 0 0 0.984974 0 2.2C0 3.41503 0.984974 4.4 2.2 4.4Z" fill="#BBB9BA"/>
<path d="M2.2 19.13C3.41503 19.13 4.4 18.145 4.4 16.93C4.4 15.715 3.41503 14.73 2.2 14.73C0.984974 14.73 0 15.715 0 16.93C0 18.145 0.984974 19.13 2.2 19.13Z" fill="#BBB9BA"/>
<path d="M4.4 31.66C4.4 30.44 3.41 29.46 2.2 29.46C0.99 29.46 0 30.45 0 31.66C0 32.87 0.99 33.86 2.2 33.86C3.41 33.86 4.4 32.87 4.4 31.66Z" fill="#BBB9BA"/>
<path d="M4.4 46.3801C4.4 45.1601 3.41 44.1801 2.2 44.1801C0.99 44.1801 0 45.1701 0 46.3801C0 47.5901 0.99 48.5801 2.2 48.5801C3.41 48.5801 4.4 47.5901 4.4 46.3801Z" fill="#BBB9BA"/>
<path d="M2.2 63.31C3.41503 63.31 4.4 62.3251 4.4 61.11C4.4 59.895 3.41503 58.91 2.2 58.91C0.984974 58.91 0 59.895 0 61.11C0 62.3251 0.984974 63.31 2.2 63.31Z" fill="#BBB9BA"/>
<path d="M2.2 78.04C3.41503 78.04 4.4 77.055 4.4 75.84C4.4 74.625 3.41503 73.64 2.2 73.64C0.984974 73.64 0 74.625 0 75.84C0 77.055 0.984974 78.04 2.2 78.04Z" fill="#BBB9BA"/>
<path d="M14.08 4.4C15.295 4.4 16.28 3.41503 16.28 2.2C16.28 0.984974 15.295 0 14.08 0C12.865 0 11.88 0.984974 11.88 2.2C11.88 3.41503 12.865 4.4 14.08 4.4Z" fill="#BBB9BA"/>
<path d="M14.08 19.13C15.295 19.13 16.28 18.145 16.28 16.93C16.28 15.715 15.295 14.73 14.08 14.73C12.865 14.73 11.88 15.715 11.88 16.93C11.88 18.145 12.865 19.13 14.08 19.13Z" fill="#BBB9BA"/>
<path d="M16.29 31.66C16.29 30.44 15.3 29.46 14.09 29.46C12.88 29.46 11.89 30.45 11.89 31.66C11.89 32.87 12.88 33.86 14.09 33.86C15.3 33.86 16.29 32.87 16.29 31.66Z" fill="#BBB9BA"/>
<path d="M16.29 46.3801C16.29 45.1601 15.3 44.1801 14.09 44.1801C12.88 44.1801 11.89 45.1701 11.89 46.3801C11.89 47.5901 12.88 48.5801 14.09 48.5801C15.3 48.5801 16.29 47.5901 16.29 46.3801Z" fill="#BBB9BA"/>
<path d="M14.08 63.31C15.295 63.31 16.28 62.3251 16.28 61.11C16.28 59.895 15.295 58.91 14.08 58.91C12.865 58.91 11.88 59.895 11.88 61.11C11.88 62.3251 12.865 63.31 14.08 63.31Z" fill="#BBB9BA"/>
<path d="M14.08 78.04C15.295 78.04 16.28 77.055 16.28 75.84C16.28 74.625 15.295 73.64 14.08 73.64C12.865 73.64 11.88 74.625 11.88 75.84C11.88 77.055 12.865 78.04 14.08 78.04Z" fill="#BBB9BA"/>
<path d="M28.17 2.2C28.17 0.98 27.18 0 25.97 0C24.76 0 23.77 0.99 23.77 2.2C23.77 3.41 24.76 4.4 25.97 4.4C27.18 4.4 28.17 3.41 28.17 2.2Z" fill="#BBB9BA"/>
<path d="M28.17 16.93C28.17 15.71 27.18 14.73 25.97 14.73C24.76 14.73 23.77 15.72 23.77 16.93C23.77 18.14 24.76 19.13 25.97 19.13C27.18 19.13 28.17 18.14 28.17 16.93Z" fill="#BBB9BA"/>
<path d="M28.17 31.66C28.17 30.44 27.18 29.46 25.97 29.46C24.76 29.46 23.77 30.45 23.77 31.66C23.77 32.87 24.76 33.86 25.97 33.86C27.18 33.86 28.17 32.87 28.17 31.66Z" fill="#BBB9BA"/>
<path d="M28.17 46.3801C28.17 45.1601 27.18 44.1801 25.97 44.1801C24.76 44.1801 23.77 45.1701 23.77 46.3801C23.77 47.5901 24.76 48.5801 25.97 48.5801C27.18 48.5801 28.17 47.5901 28.17 46.3801Z" fill="#BBB9BA"/>
<path d="M28.17 61.11C28.17 59.89 27.18 58.91 25.97 58.91C24.76 58.91 23.77 59.9 23.77 61.11C23.77 62.32 24.76 63.31 25.97 63.31C27.18 63.31 28.17 62.32 28.17 61.11Z" fill="#BBB9BA"/>
<path d="M28.17 75.84C28.17 74.62 27.18 73.64 25.97 73.64C24.76 73.64 23.77 74.63 23.77 75.84C23.77 77.05 24.76 78.04 25.97 78.04C27.18 78.04 28.17 77.05 28.17 75.84Z" fill="#BBB9BA"/>
<path d="M37.85 4.4C39.065 4.4 40.05 3.41503 40.05 2.2C40.05 0.984974 39.065 0 37.85 0C36.635 0 35.65 0.984974 35.65 2.2C35.65 3.41503 36.635 4.4 37.85 4.4Z" fill="#BBB9BA"/>
<path d="M37.85 19.13C39.065 19.13 40.05 18.145 40.05 16.93C40.05 15.715 39.065 14.73 37.85 14.73C36.635 14.73 35.65 15.715 35.65 16.93C35.65 18.145 36.635 19.13 37.85 19.13Z" fill="#BBB9BA"/>
<path d="M40.05 31.66C40.05 30.44 39.06 29.46 37.85 29.46C36.64 29.46 35.65 30.45 35.65 31.66C35.65 32.87 36.64 33.86 37.85 33.86C39.06 33.86 40.05 32.87 40.05 31.66Z" fill="#BBB9BA"/>
<path d="M40.05 46.3801C40.05 45.1601 39.06 44.1801 37.85 44.1801C36.64 44.1801 35.65 45.1701 35.65 46.3801C35.65 47.5901 36.64 48.5801 37.85 48.5801C39.06 48.5801 40.05 47.5901 40.05 46.3801Z" fill="#BBB9BA"/>
<path d="M37.85 63.31C39.065 63.31 40.05 62.3251 40.05 61.11C40.05 59.895 39.065 58.91 37.85 58.91C36.635 58.91 35.65 59.895 35.65 61.11C35.65 62.3251 36.635 63.31 37.85 63.31Z" fill="#BBB9BA"/>
<path d="M37.85 78.04C39.065 78.04 40.05 77.055 40.05 75.84C40.05 74.625 39.065 73.64 37.85 73.64C36.635 73.64 35.65 74.625 35.65 75.84C35.65 77.055 36.635 78.04 37.85 78.04Z" fill="#BBB9BA"/>
<path d="M49.73 4.4C50.9451 4.4 51.93 3.41503 51.93 2.2C51.93 0.984974 50.9451 0 49.73 0C48.515 0 47.53 0.984974 47.53 2.2C47.53 3.41503 48.515 4.4 49.73 4.4Z" fill="#BBB9BA"/>
<path d="M49.73 19.13C50.9451 19.13 51.93 18.145 51.93 16.93C51.93 15.715 50.9451 14.73 49.73 14.73C48.515 14.73 47.53 15.715 47.53 16.93C47.53 18.145 48.515 19.13 49.73 19.13Z" fill="#BBB9BA"/>
<path d="M51.93 31.66C51.93 30.44 50.94 29.46 49.73 29.46C48.52 29.46 47.53 30.45 47.53 31.66C47.53 32.87 48.52 33.86 49.73 33.86C50.94 33.86 51.93 32.87 51.93 31.66Z" fill="#BBB9BA"/>
<path d="M51.93 46.3801C51.93 45.1601 50.94 44.1801 49.73 44.1801C48.52 44.1801 47.53 45.1701 47.53 46.3801C47.53 47.5901 48.52 48.5801 49.73 48.5801C50.94 48.5801 51.93 47.5901 51.93 46.3801Z" fill="#BBB9BA"/>
<path d="M49.73 63.31C50.9451 63.31 51.93 62.3251 51.93 61.11C51.93 59.895 50.9451 58.91 49.73 58.91C48.515 58.91 47.53 59.895 47.53 61.11C47.53 62.3251 48.515 63.31 49.73 63.31Z" fill="#BBB9BA"/>
<path d="M49.73 78.04C50.9451 78.04 51.93 77.055 51.93 75.84C51.93 74.625 50.9451 73.64 49.73 73.64C48.515 73.64 47.53 74.625 47.53 75.84C47.53 77.055 48.515 78.04 49.73 78.04Z" fill="#BBB9BA"/>
<path d="M63.81 2.2C63.81 0.98 62.82 0 61.61 0C60.4 0 59.41 0.99 59.41 2.2C59.41 3.41 60.4 4.4 61.61 4.4C62.82 4.4 63.81 3.41 63.81 2.2Z" fill="#BBB9BA"/>
<path d="M63.81 16.93C63.81 15.71 62.82 14.73 61.61 14.73C60.4 14.73 59.41 15.72 59.41 16.93C59.41 18.14 60.4 19.13 61.61 19.13C62.82 19.13 63.81 18.14 63.81 16.93Z" fill="#BBB9BA"/>
<path d="M63.81 31.66C63.81 30.44 62.82 29.46 61.61 29.46C60.4 29.46 59.41 30.45 59.41 31.66C59.41 32.87 60.4 33.86 61.61 33.86C62.82 33.86 63.81 32.87 63.81 31.66Z" fill="#BBB9BA"/>
<path d="M63.81 46.3801C63.81 45.1601 62.82 44.1801 61.61 44.1801C60.4 44.1801 59.41 45.1701 59.41 46.3801C59.41 47.5901 60.4 48.5801 61.61 48.5801C62.82 48.5801 63.81 47.5901 63.81 46.3801Z" fill="#BBB9BA"/>
<path d="M63.81 61.11C63.81 59.89 62.82 58.91 61.61 58.91C60.4 58.91 59.41 59.9 59.41 61.11C59.41 62.32 60.4 63.31 61.61 63.31C62.82 63.31 63.81 62.32 63.81 61.11Z" fill="#BBB9BA"/>
<path d="M63.81 75.84C63.81 74.62 62.82 73.64 61.61 73.64C60.4 73.64 59.41 74.63 59.41 75.84C59.41 77.05 60.4 78.04 61.61 78.04C62.82 78.04 63.81 77.05 63.81 75.84Z" fill="#BBB9BA"/>
</g>
<defs>
<clipPath id="clip0_1_302">
<rect width="63.81" height="78.04" fill="white"/>
</clipPath>
</defs>
</svg>
