<svg width="34" height="36" viewBox="0 0 34 36" fill="none" xmlns="http://www.w3.org/2000/svg">
<g clip-path="url(#clip0_1_366)">
<path fill-rule="evenodd" clip-rule="evenodd" d="M8.33775 33.2374C18.1795 35.6127 24.8383 29.4979 22.3018 18.9735C22.3677 19.3745 22.4017 19.7868 22.4017 20.206C22.4017 24.368 19.028 27.7418 14.866 27.7418C11.4332 27.7418 8.53654 25.4472 7.62666 22.3075C7.38243 21.4635 6.844 20.8319 6.04998 20.4559C5.25596 20.0799 4.4256 20.0651 3.61795 20.4116L3.59977 20.4195C2.26959 20.9898 1.55509 22.4029 1.88451 23.8126C2.79326 27.7054 5.14237 31.0439 8.33889 33.2374H8.33775ZM3.2908 12.7395C5.10829 12.7395 6.5816 14.2128 6.5816 16.0303C6.5816 17.8478 5.10829 19.3211 3.2908 19.3211C1.47331 19.3211 0 17.8478 0 16.0303C0 14.2128 1.47331 12.7395 3.2908 12.7395Z" fill="url(#paint0_linear_1_366)"/>
<path fill-rule="evenodd" clip-rule="evenodd" d="M20.6115 30.2238C22.7039 27.6453 23.4558 23.7672 22.3006 18.9724C22.3665 19.3734 22.4006 19.7857 22.4006 20.2049C22.4006 24.367 19.0268 27.7407 14.8648 27.7407C11.432 27.7407 8.53536 25.4461 7.62548 22.3064C7.38126 21.4624 6.84282 20.8308 6.04881 20.4548C5.33317 20.1163 4.59027 20.0709 3.85986 20.3174C5.68644 29.0504 13.0132 32.9819 20.6126 30.2227L20.6115 30.2238Z" fill="#FD6585"/>
<path fill-rule="evenodd" clip-rule="evenodd" d="M8.33768 33.2375C18.1794 35.6127 24.8383 29.498 22.3006 18.9724C22.3665 19.3734 22.4005 19.7857 22.4005 20.2049C22.4005 21.6703 21.9814 23.0379 21.2578 24.1954C20.7818 30.1704 15.7678 33.8452 8.33655 33.2363L8.33768 33.2375Z" fill="white"/>
<path fill-rule="evenodd" clip-rule="evenodd" d="M22.3006 18.9724C24.8383 29.4968 18.1794 35.6126 8.33655 33.2374C10.8765 34.9799 13.9503 36 17.2638 36C25.9867 36 33.0579 28.9288 33.0579 20.206C33.0579 18.0091 32.6092 15.9178 31.7993 14.0174C31.2347 12.6929 30.276 11.7546 28.9401 11.2196C27.6042 10.6835 26.2627 10.6994 24.9405 11.2673L24.8826 11.2923C22.3687 12.3703 21.1169 15.1852 21.9996 17.7739C22.1313 18.1602 22.2324 18.5611 22.3006 18.9735V18.9724ZM22.8685 0C25.8322 0 28.2347 2.4025 28.2347 5.36615C28.2347 8.3298 25.8322 10.7323 22.8685 10.7323C19.9049 10.7323 17.5024 8.3298 17.5024 5.36615C17.5024 2.4025 19.9049 0 22.8685 0Z" fill="url(#paint1_linear_1_366)"/>
<path fill-rule="evenodd" clip-rule="evenodd" d="M26.9795 17.0697C24.9769 12.0534 26.0265 10.9254 28.9413 11.2196C27.6054 10.6835 26.2639 10.6994 24.9417 11.2673L24.8837 11.2923C22.3699 12.3703 21.1181 15.1852 22.0007 17.774C22.1325 18.1602 22.2336 18.5612 22.3018 18.9735C24.8394 29.4979 18.1806 35.6127 8.33887 33.2386C12.343 34.9504 16.3949 34.8834 19.7868 33.6146C26.3025 31.1768 30.3782 24.301 26.9807 17.0708L26.9795 17.0697Z" fill="url(#paint2_linear_1_366)"/>
<g clip-path="url(#clip1_1_366)">
<path fill-rule="evenodd" clip-rule="evenodd" d="M8.42603 33.2909C18.3022 35.6744 24.9844 29.5383 22.439 18.977C22.5051 19.3794 22.5393 19.7932 22.5393 20.2138C22.5393 24.3905 19.1537 27.776 14.9771 27.776C11.5323 27.776 8.62552 25.4734 7.71245 22.3227C7.46737 21.4757 6.92705 20.8419 6.13025 20.4646C5.33345 20.0873 4.50018 20.0725 3.6897 20.4202L3.67146 20.4281C2.33663 21.0004 1.61962 22.4184 1.9502 23.833C2.86212 27.7395 5.21946 31.0897 8.42717 33.2909H8.42603ZM3.36141 12.7212C5.18526 12.7212 6.66373 14.1997 6.66373 16.0235C6.66373 17.8474 5.18526 19.3258 3.36141 19.3258C1.53755 19.3258 0.059082 17.8474 0.059082 16.0235C0.059082 14.1997 1.53755 12.7212 3.36141 12.7212Z" fill="white"/>
<path fill-rule="evenodd" clip-rule="evenodd" d="M20.7428 30.2669C22.8425 27.6793 23.5971 23.7876 22.4378 18.9761C22.5039 19.3785 22.5381 19.7922 22.5381 20.2129C22.5381 24.3895 19.1526 27.7751 14.976 27.7751C11.5311 27.7751 8.62437 25.4724 7.7113 22.3217C7.46622 21.4748 6.9259 20.841 6.1291 20.4637C5.41096 20.124 4.66546 20.0784 3.9325 20.3257C5.76547 29.0894 13.1179 33.0346 20.7439 30.2658L20.7428 30.2669Z" fill="white"/>
<path fill-rule="evenodd" clip-rule="evenodd" d="M8.42594 33.2911C18.3021 35.6746 24.9843 29.5385 22.4377 18.9761C22.5039 19.3785 22.538 19.7922 22.538 20.2129C22.538 21.6834 22.1174 23.0558 21.3913 24.2174C20.9137 30.2133 15.8821 33.9009 8.4248 33.2899L8.42594 33.2911Z" fill="white"/>
<path fill-rule="evenodd" clip-rule="evenodd" d="M22.4377 18.9761C24.9843 29.5373 18.3021 35.6746 8.4248 33.2911C10.9736 35.0397 14.0582 36.0633 17.3834 36.0633C26.1367 36.0633 33.2327 28.9674 33.2327 20.214C33.2327 18.0094 32.7824 15.9108 31.9697 14.0038C31.4031 12.6746 30.4411 11.7331 29.1005 11.1962C27.76 10.6581 26.4137 10.6741 25.0869 11.244L25.0288 11.2691C22.5061 12.3509 21.2499 15.1756 22.1357 17.7735C22.2679 18.161 22.3693 18.5634 22.4377 18.9772V18.9761ZM23.0077 -0.0627441C25.9817 -0.0627441 28.3926 2.34817 28.3926 5.3222C28.3926 8.29623 25.9817 10.7071 23.0077 10.7071C20.0337 10.7071 17.6228 8.29623 17.6228 5.3222C17.6228 2.34817 20.0337 -0.0627441 23.0077 -0.0627441Z" fill="white"/>
<path fill-rule="evenodd" clip-rule="evenodd" d="M27.133 17.0671C25.1233 12.0333 26.1766 10.9014 29.1016 11.1966C27.7611 10.6586 26.4149 10.6745 25.088 11.2445L25.0299 11.2695C22.5072 12.3513 21.2511 15.176 22.1368 17.7739C22.269 18.1615 22.3705 18.5638 22.4389 18.9776C24.9854 29.5389 18.3033 35.675 8.42706 33.2926C12.4453 35.0105 16.5113 34.9432 19.9151 33.6699C26.4536 31.2237 30.5436 24.3238 27.1341 17.0683L27.133 17.0671Z" fill="white"/>
</g>
</g>
<defs>
<linearGradient id="paint0_linear_1_366" x1="28.2088" y1="27.2523" x2="2.34998" y2="7.08494" gradientUnits="userSpaceOnUse">
<stop stop-color="#E61053"/>
<stop offset="1" stop-color="#D6377F"/>
</linearGradient>
<linearGradient id="paint1_linear_1_366" x1="8.73572" y1="5.22581" x2="38.0851" y2="19.7337" gradientUnits="userSpaceOnUse">
<stop offset="0.145929" stop-color="#E61053"/>
<stop offset="0.496006" stop-color="#F7C762"/>
<stop offset="0.923355" stop-color="#7A497A"/>
</linearGradient>
<linearGradient id="paint2_linear_1_366" x1="8.67153" y1="14.2721" x2="30.5527" y2="27.9538" gradientUnits="userSpaceOnUse">
<stop offset="0.145929" stop-color="#E61053"/>
<stop offset="0.496006" stop-color="#F7C762"/>
<stop offset="0.923355" stop-color="#7A497A"/>
</linearGradient>
<clipPath id="clip0_1_366">
<rect width="33.0591" height="36" fill="white"/>
</clipPath>
<clipPath id="clip1_1_366">
<rect width="33.1748" height="36.1261" fill="white" transform="translate(0.059082 -0.0629883)"/>
</clipPath>
</defs>
</svg>
