<svg width="39" height="40" viewBox="0 0 39 40" fill="none" xmlns="http://www.w3.org/2000/svg">
<path d="M5.39616 0C6.93073 0 8.21813 1.23763 8.21813 2.82197C8.21813 4.40631 6.9805 5.64394 5.39616 5.64394C3.86159 5.64394 2.62396 4.40631 2.62396 2.82197C2.62396 1.23763 3.86159 0 5.39616 0Z" fill="#FD6585"/>
<path d="M10.8417 14.7523C10.8417 15.2968 10.6932 15.6929 10.2971 16.089C9.55464 16.782 7.62398 17.2275 5.39599 17.2275C3.16834 17.2275 1.23765 16.782 0.544574 16.089C0.148489 15.6929 0 15.2474 0 14.7028C0 9.90084 3.16833 6.93036 5.39597 6.93036C7.67338 6.93036 10.8417 9.90084 10.8417 14.7522L10.8417 14.7523Z" fill="#FD6585"/>
<path d="M33.5154 0C35.05 0 36.3374 1.23763 36.3374 2.82197C36.3374 4.40631 35.0998 5.64394 33.5154 5.64394C31.9809 5.64394 30.7432 4.40631 30.7432 2.82197C30.7432 1.23763 31.9809 0 33.5154 0Z" fill="#FD6585"/>
<path d="M38.9601 14.7523C38.9601 15.2968 38.8116 15.6929 38.4156 16.089C37.6731 16.782 35.7425 17.2275 33.5145 17.2275C31.2868 17.2275 29.3561 16.782 28.663 16.089C28.267 15.6929 28.1185 15.2474 28.1185 14.7028C28.1185 9.90084 31.2871 6.93036 33.5148 6.93036C35.7918 6.93036 38.9602 9.90084 38.9602 14.7522L38.9601 14.7523Z" fill="#FD6585"/>
<path d="M15.2966 8.71289H24.2075C25.3957 8.71289 25.3957 6.8316 24.2075 6.8316H15.2966C14.1086 6.8316 14.059 8.71289 15.2966 8.71289Z" fill="#FD6585"/>
<path d="M19.4557 22.772C20.9903 22.772 22.2777 24.0097 22.2777 25.594C22.2777 27.1286 21.04 28.416 19.4557 28.416C17.9211 28.416 16.6835 27.1783 16.6835 25.594C16.6341 24.0097 17.9211 22.772 19.4557 22.772Z" fill="#FD6585"/>
<path d="M24.852 37.5247C24.852 38.0693 24.7035 38.4654 24.3075 38.8615C23.565 39.5545 21.6344 40 19.4064 40C17.1787 40 15.248 39.5545 14.5549 38.8615C14.1589 38.4654 14.0104 38.0199 14.0104 37.4753C14.0104 32.6733 17.1787 29.7032 19.4558 29.7032C21.6838 29.7032 24.8521 32.6733 24.8521 37.5247H24.852Z" fill="#FD6585"/>
<path d="M32.2279 20.3959C33.0694 19.5544 34.4062 20.8414 33.5646 21.7326L27.2774 28.0199C26.4358 28.8614 25.0991 27.5744 25.9407 26.6831C28.0201 24.5542 30.1488 22.475 32.2279 20.3959Z" fill="#FD6585"/>
<path d="M12.3762 26.6829C13.2178 27.5245 11.881 28.8612 11.0395 28.0196L4.75227 21.7324C3.91073 20.8909 5.19774 19.5541 6.03932 20.3957C8.16821 22.4749 10.2971 24.554 12.3763 26.6829H12.3762Z" fill="#FD6585"/>
</svg>
