<svg width="22" height="31" viewBox="0 0 22 31" fill="none" xmlns="http://www.w3.org/2000/svg">
<path d="M11 22.2125C13.475 20.2125 15.344 18.2875 16.607 16.4375C17.869 14.5875 18.5 12.85 18.5 11.225C18.5 9.825 18.244 8.631 17.732 7.643C17.219 6.656 16.5875 5.856 15.8375 5.243C15.0875 4.631 14.275 4.1875 13.4 3.9125C12.525 3.6375 11.725 3.5 11 3.5C10.275 3.5 9.475 3.6375 8.6 3.9125C7.725 4.1875 6.9125 4.631 6.1625 5.243C5.4125 5.856 4.7815 6.656 4.2695 7.643C3.7565 8.631 3.5 9.825 3.5 11.225C3.5 12.85 4.131 14.5875 5.393 16.4375C6.656 18.2875 8.525 20.2125 11 22.2125ZM11 26C7.475 23.4 4.8435 20.875 3.1055 18.425C1.3685 15.975 0.5 13.575 0.5 11.225C0.5 9.45 0.819 7.8935 1.457 6.5555C2.094 5.2185 2.9125 4.1 3.9125 3.2C4.9125 2.3 6.0375 1.625 7.2875 1.175C8.5375 0.725 9.775 0.5 11 0.5C12.225 0.5 13.4625 0.725 14.7125 1.175C15.9625 1.625 17.0875 2.3 18.0875 3.2C19.0875 4.1 19.9065 5.2185 20.5445 6.5555C21.1815 7.8935 21.5 9.45 21.5 11.225C21.5 13.575 20.631 15.975 18.893 18.425C17.156 20.875 14.525 23.4 11 26ZM11 14C11.825 14 12.5315 13.706 13.1195 13.118C13.7065 12.531 14 11.825 14 11C14 10.175 13.7065 9.4685 13.1195 8.8805C12.5315 8.2935 11.825 8 11 8C10.175 8 9.469 8.2935 8.882 8.8805C8.294 9.4685 8 10.175 8 11C8 11.825 8.294 12.531 8.882 13.118C9.469 13.706 10.175 14 11 14ZM0.5 30.5V27.5H21.5V30.5H0.5Z" fill="#D6377F"/>
</svg>
