<svg width="56" height="60" viewBox="0 0 56 60" fill="none" xmlns="http://www.w3.org/2000/svg">
<path fill-rule="evenodd" clip-rule="evenodd" d="M13.8962 55.3956C30.2991 59.3543 41.3972 49.1631 37.1696 31.6224C37.2794 32.2907 37.3362 32.978 37.3362 33.6766C37.3362 40.6133 31.7134 46.2362 24.7766 46.2362C19.0553 46.2362 14.2276 42.4119 12.7111 37.179C12.304 35.7724 11.4067 34.7197 10.0833 34.0931C8.75994 33.4664 7.37599 33.4418 6.02991 34.0192L5.99962 34.0325C3.78266 34.9829 2.59182 37.3381 3.14086 39.6875C4.65543 46.1756 8.57062 51.7398 13.8981 55.3956H13.8962ZM5.48466 21.2324C8.51382 21.2324 10.9693 23.6879 10.9693 26.7171C10.9693 29.7462 8.51382 32.2017 5.48466 32.2017C2.45551 32.2017 0 29.7462 0 26.7171C0 23.6879 2.45551 21.2324 5.48466 21.2324Z" fill="white"/>
<path fill-rule="evenodd" clip-rule="evenodd" d="M34.3524 50.373C37.8397 46.0754 39.093 39.6119 37.1676 31.6206C37.2774 32.2889 37.3342 32.9762 37.3342 33.6747C37.3342 40.6115 31.7113 46.2344 24.7746 46.2344C19.0533 46.2344 14.2255 42.4101 12.7091 37.1772C12.302 35.7705 11.4046 34.7179 10.0813 34.0913C8.88855 33.5271 7.65039 33.4514 6.43304 33.8622C9.47735 48.4173 21.6886 54.9697 34.3543 50.3711L34.3524 50.373Z" fill="white"/>
<path fill-rule="evenodd" clip-rule="evenodd" d="M13.8961 55.3957C30.299 59.3544 41.3971 49.1632 37.1676 31.6206C37.2774 32.2889 37.3342 32.9762 37.3342 33.6747C37.3342 36.117 36.6356 38.3964 35.4296 40.3256C34.6364 50.284 26.2797 56.4086 13.8942 55.3938L13.8961 55.3957Z" fill="white"/>
<path fill-rule="evenodd" clip-rule="evenodd" d="M37.1676 31.6206C41.3971 49.1613 30.299 59.3544 13.8942 55.3957C18.1275 58.2999 23.2505 60 28.7731 60C43.3111 60 55.0964 48.2147 55.0964 33.6766C55.0964 30.0151 54.3486 26.5297 52.9987 23.3624C52.0578 21.1549 50.4599 19.5911 48.2335 18.6994C46.0071 17.8058 43.7712 17.8323 41.5675 18.7789L41.4709 18.8205C37.2812 20.6172 35.1949 25.3086 36.6659 29.6232C36.8855 30.2669 37.054 30.9352 37.1676 31.6225V31.6206ZM38.1142 0C43.0536 0 47.0578 4.00416 47.0578 8.94358C47.0578 13.883 43.0536 17.8872 38.1142 17.8872C33.1748 17.8872 29.1706 13.883 29.1706 8.94358C29.1706 4.00416 33.1748 0 38.1142 0Z" fill="white"/>
<path fill-rule="evenodd" clip-rule="evenodd" d="M44.9658 28.4496C41.6281 20.0891 43.3774 18.2091 48.2354 18.6995C46.009 17.8059 43.7731 17.8324 41.5694 18.779L41.4728 18.8206C37.2831 20.6173 35.1968 25.3087 36.6678 29.6234C36.8875 30.2671 37.056 30.9354 37.1696 31.6226C41.399 49.1633 30.3009 59.3545 13.8981 55.3977C20.5717 58.2508 27.3248 58.1391 32.978 56.0244C43.8375 51.9615 50.6304 40.5018 44.9677 28.4515L44.9658 28.4496Z" fill="white"/>
</svg>
