<svg width="21" height="24" viewBox="0 0 21 24" fill="none" xmlns="http://www.w3.org/2000/svg">
<path d="M2.68333 23.0833C2.1 23.0833 1.60416 22.8791 1.19583 22.4708C0.787495 22.0624 0.583328 21.5666 0.583328 20.9833V5.34992C0.583328 4.76659 0.787495 4.27075 1.19583 3.86242C1.60416 3.45409 2.1 3.24992 2.68333 3.24992H4.31666V0.770752H6.09583V3.24992H14.9333V0.770752H16.6833V3.24992H18.3167C18.9 3.24992 19.3958 3.45409 19.8042 3.86242C20.2125 4.27075 20.4167 4.76659 20.4167 5.34992V20.9833C20.4167 21.5666 20.2125 22.0624 19.8042 22.4708C19.3958 22.8791 18.9 23.0833 18.3167 23.0833H2.68333ZM2.68333 21.3333H18.3167C18.3944 21.3333 18.4722 21.2944 18.55 21.2166C18.6278 21.1388 18.6667 21.061 18.6667 20.9833V10.0166H2.33333V20.9833C2.33333 21.061 2.37222 21.1388 2.44999 21.2166C2.52777 21.2944 2.60555 21.3333 2.68333 21.3333ZM2.33333 8.26659H18.6667V5.34992C18.6667 5.27214 18.6278 5.19436 18.55 5.11659C18.4722 5.03881 18.3944 4.99992 18.3167 4.99992H2.68333C2.60555 4.99992 2.52777 5.03881 2.44999 5.11659C2.37222 5.19436 2.33333 5.27214 2.33333 5.34992V8.26659Z" fill="#FD6585"/>
</svg>
