<svg width="28" height="24" viewBox="0 0 28 24" fill="none" xmlns="http://www.w3.org/2000/svg">
<path d="M20.0289 22.4471H14.7773V19.1128H13.2243V22.4471H7.97213C7.45528 22.4471 7.19538 22.8352 7.19538 23.2239C7.19538 23.6123 7.45531 24.0001 7.97213 24.0001H20.0286C20.5455 24.0001 20.8054 23.612 20.8054 23.2233C20.8054 22.835 20.5454 22.4471 20.0289 22.4471Z" fill="#FD6585"/>
<path d="M26.9697 0.991075H15.1175V0.489237C15.1175 0.244918 14.9561 0 14.6283 0H13.3728C13.0474 0 12.8836 0.244319 12.8836 0.489237V0.991075H1.0299C0.513052 0.991075 0.253159 1.37916 0.253159 1.76782C0.253159 2.15648 0.513082 2.54457 1.0299 2.54457H26.9701C27.4869 2.54457 27.7468 2.15648 27.7468 1.76782C27.7465 1.37913 27.4872 0.991075 26.9704 0.991075H26.9697Z" fill="#FD6585"/>
<path d="M26.1929 16.7597V3.32086L24.7254 3.32866V16.7598L3.27484 16.7595V3.32836L1.80594 3.32056V16.7594C1.28909 16.7594 1.0292 17.1474 1.0292 17.5361C1.0292 17.9248 1.28912 18.3128 1.80594 18.3128H26.1925C26.7093 18.3128 26.9692 17.9248 26.9692 17.5361C26.9692 17.1477 26.7093 16.7599 26.1925 16.7599L26.1929 16.7597Z" fill="#FD6585"/>
</svg>
