<svg width="32" height="24" viewBox="0 0 32 24" fill="none" xmlns="http://www.w3.org/2000/svg">
<path d="M6.9452 11.5263C6.85004 11.5599 6.74992 11.5769 6.6491 11.5769C3.4522 11.5769 0.860657 8.98539 0.860657 5.78845C0.860657 2.59155 3.45233 0 6.6491 0C9.84618 0 12.4375 2.59168 12.4375 5.78845C12.4375 5.87486 12.425 5.96076 12.4003 6.04357C12.0821 7.10812 11.3303 8.19391 10.1622 9.32312C9.01058 10.4363 7.94551 11.1738 6.94508 11.5264L6.9452 11.5263ZM21.9312 19.8109L23.3092 21.1889C24.6828 22.5626 26.9098 22.5626 28.2834 21.1889C29.6571 19.8152 29.6571 17.588 28.2834 16.2142L22.0495 9.98023C19.9802 7.91095 19.9802 4.55608 22.0495 2.48703C24.1187 0.417749 27.4736 0.417749 29.5427 2.48703L30.8785 3.82283C31.2263 4.17054 31.2263 4.73446 30.8785 5.0823C30.5308 5.43001 29.9668 5.43001 29.6192 5.0823L28.2832 3.74633C26.9095 2.37264 24.6825 2.37264 23.3089 3.74633C21.9353 5.12001 21.9353 7.34716 23.3089 8.72102L29.5429 14.955C31.6122 17.0241 31.6122 20.3791 29.5429 22.4482C27.4736 24.5173 24.1187 24.5173 22.0497 22.4482L20.6717 21.0702C20.0107 21.6349 19.0273 21.6421 18.3568 21.0673L8.62068 12.7221C9.52973 12.2309 10.4486 11.524 11.4008 10.6037C12.3693 9.66735 13.1064 8.73412 13.6033 7.7829L21.9287 17.4957C22.5036 18.1662 22.4964 19.1497 21.9316 19.8107L21.9312 19.8109Z" fill="#FD6585"/>
</svg>
