<svg width="51" height="40" viewBox="0 0 51 40" fill="none" xmlns="http://www.w3.org/2000/svg">
<path d="M10.1409 19.2105C9.98231 19.2665 9.81544 19.2948 9.64741 19.2948C4.31924 19.2948 0 14.9757 0 9.64741C0 4.31924 4.31946 0 9.64741 0C14.9759 0 19.2948 4.31946 19.2948 9.64741C19.2948 9.79144 19.274 9.9346 19.2328 10.0726C18.7025 11.8469 17.4494 13.6565 15.5026 15.5385C13.5832 17.3939 11.8081 18.623 10.1407 19.2107L10.1409 19.2105ZM35.1175 33.0182L37.4142 35.3148C39.7036 37.6043 43.4153 37.6043 45.7046 35.3148C47.994 33.0253 47.994 29.3134 45.7046 27.0236L35.3147 16.6337C31.8659 13.1849 31.8659 7.59347 35.3147 4.14504C38.7635 0.696248 44.3549 0.696248 47.8033 4.14504L50.0297 6.37138C50.6095 6.95089 50.6095 7.89077 50.0297 8.47051C49.4502 9.05002 48.5103 9.05002 47.9308 8.47051L45.7042 6.24388C43.4147 3.95441 39.7031 3.95441 37.4138 6.24388C35.1245 8.53334 35.1243 12.2453 37.4138 14.535L47.8037 24.9249C51.2525 28.3734 51.2525 33.9652 47.8037 37.4136C44.3549 40.8621 38.7635 40.8621 35.315 37.4136L33.0184 35.117C31.9168 36.0582 30.2777 36.0702 29.1602 35.1121L12.9334 21.2036C14.4484 20.3849 15.9798 19.2067 17.5669 17.6728C19.1811 16.1123 20.4095 14.5569 21.2377 12.9715L35.1133 29.1595C36.0715 30.2771 36.0595 31.9162 35.1182 33.0178L35.1175 33.0182Z" fill="#FD6585"/>
</svg>
