<svg width="40" height="40" viewBox="0 0 40 40" fill="none" xmlns="http://www.w3.org/2000/svg">
<path d="M12 0C14.841 0.0254469 17.4553 1.55577 18.8688 4.02057C20.2822 6.48526 20.2822 9.51474 18.8688 11.9795C17.4554 14.4442 14.8411 15.9746 12 16.0001C9.15897 15.9747 6.54469 14.4443 5.1312 11.9795C3.71783 9.51486 3.71783 6.48537 5.1312 4.02057C6.54411 1.55589 9.15886 0.0254857 12 0ZM16 29C15.9924 24.8719 17.9634 20.9902 21.3 18.5598C20.5897 18.1901 19.8009 17.9977 19 18H5C3.67406 18.0004 2.40263 18.5272 1.46514 19.4651C0.527201 20.4026 0.000457143 21.674 0 23V35C0.0004464 36.3259 0.527235 37.5973 1.46514 38.5348C2.40264 39.4728 3.67406 39.9995 5 40H19C19.8009 40.0022 20.5897 39.8098 21.3 39.4401C17.963 37.0097 15.9925 33.1281 16 28.9999V29ZM29 16C31.1281 15.9768 33.0843 14.8281 34.1415 12.9813C35.1991 11.1344 35.1986 8.8656 34.1415 7.01874C33.0843 5.17189 31.1277 4.0232 29 4C26.8719 4.02322 24.9157 5.17189 23.8581 7.01874C22.8009 8.8656 22.8009 11.1344 23.8585 12.9813C24.9156 14.8281 26.8719 15.9768 29 16H29ZM29.0004 40C14.4736 39.5379 14.4679 18.4651 29 18C43.5326 18.4674 43.5349 39.5303 29.0004 40ZM34 28H30V24C30 23.4478 29.5522 23 29 23C28.4478 23 28 23.4478 28 24V28H24C23.4478 28 23 28.4478 23 29C23 29.5522 23.4478 30 24 30H28V34C28 34.5522 28.4478 35 29 35C29.5522 35 30 34.5522 30 34V30H34C34.5424 29.9862 34.975 29.5424 34.975 29C34.975 28.4576 34.5424 28.0138 34 28Z" fill="#FD6585"/>
</svg>
