<svg width="20" height="16" viewBox="0 0 20 16" fill="none" xmlns="http://www.w3.org/2000/svg">
<path d="M7.2 12L10 9.9L12.75 12L11.7 8.6L14.5 6.4H11.1L10 3L8.9 6.4H5.5L8.25 8.6L7.2 12ZM2 16C1.45 16 0.979333 15.8043 0.588 15.413C0.196 15.021 0 14.55 0 14V10C0.55 10 1.021 9.804 1.413 9.412C1.80433 9.02067 2 8.55 2 8C2 7.45 1.80433 6.979 1.413 6.587C1.021 6.19567 0.55 6 0 6V2C0 1.45 0.196 0.979333 0.588 0.588C0.979333 0.196 1.45 0 2 0H18C18.55 0 19.021 0.196 19.413 0.588C19.8043 0.979333 20 1.45 20 2V6C19.45 6 18.979 6.19567 18.587 6.587C18.1957 6.979 18 7.45 18 8C18 8.55 18.1957 9.02067 18.587 9.412C18.979 9.804 19.45 10 20 10V14C20 14.55 19.8043 15.021 19.413 15.413C19.021 15.8043 18.55 16 18 16H2Z" fill="white"/>
</svg>
