<svg width="133" height="37" viewBox="0 0 133 37" fill="none" xmlns="http://www.w3.org/2000/svg">
<path fill-rule="evenodd" clip-rule="evenodd" d="M124.119 5.28303C125.949 7.25297 128.017 9.48006 132.016 9.48006L132.047 9.49573V7.92878C128.733 7.92878 127.072 6.1355 125.306 4.22899L125.293 4.2151L125.277 4.19701C123.448 2.22708 121.38 0 117.38 0C113.381 0 111.313 2.22709 109.484 4.19702L109.467 4.2151C107.712 6.12678 106.036 7.92878 102.714 7.92878C99.3998 7.92878 97.7389 6.1355 95.973 4.22899L95.9602 4.2151L95.9434 4.19702C94.1142 2.22709 92.0462 0 88.047 0C84.0479 0 81.9799 2.22709 80.1507 4.19702L80.1339 4.2151L80.1211 4.22899C78.3552 6.1355 76.6943 7.92878 73.3804 7.92878C70.0665 7.92878 68.4055 6.1355 66.6397 4.22899L66.6268 4.2151L66.61 4.19702C64.7808 2.22709 62.7129 0 58.7137 0C54.7146 0 52.6466 2.22709 50.8174 4.19702L50.8006 4.2151C49.0456 6.12678 47.369 7.92878 44.047 7.92878C40.7332 7.92878 39.0722 6.13551 37.3064 4.229L37.2935 4.2151L37.2767 4.19704C35.4475 2.2271 33.3795 0 29.3804 0C25.3812 0 23.3132 2.2271 21.4841 4.19703L21.4673 4.2151L21.4545 4.22894C19.6886 6.13547 18.0276 7.92878 14.698 7.92878C11.3685 7.92878 9.70749 6.13547 7.94163 4.22894L7.92881 4.2151L7.91204 4.19703C6.08285 2.2271 4.01487 0 0.0157084 0V1.56695C3.33145 1.56695 5.00803 3.36223 6.77504 5.25435L6.78494 5.26496L6.80172 5.28303C8.6309 7.25296 10.6989 9.48006 14.698 9.48006C18.6972 9.48006 20.7652 7.25296 22.5944 5.28303L22.6112 5.26496C24.3818 3.35328 26.0584 1.55128 29.3804 1.55128C32.6943 1.55128 34.3552 3.34455 36.1211 5.25105L36.1339 5.26496L36.1507 5.28302C37.9799 7.25296 40.0479 9.48006 44.047 9.48006C48.0462 9.48006 50.1142 7.25296 51.9434 5.28303L51.9602 5.26496C53.7151 3.35328 55.3918 1.55128 58.7137 1.55128C62.0276 1.55128 63.6886 3.34455 65.4544 5.25106L65.4673 5.26496C67.3006 7.23932 69.3847 9.48006 73.3804 9.48006C77.3639 9.48006 79.4318 7.25302 81.261 5.2831L81.2778 5.26496C83.0328 3.35328 84.7094 1.55128 88.0314 1.55128C91.3453 1.55128 93.0062 3.34456 94.7721 5.25107L94.7849 5.26496C96.6026 7.23932 98.671 9.48006 102.682 9.48006C106.682 9.48006 108.75 7.25295 110.579 5.28301L110.595 5.26496C112.35 3.35328 114.027 1.55128 117.349 1.55128C120.663 1.55128 122.324 3.34456 124.09 5.25107L124.103 5.26496L124.119 5.28303ZM132.016 22.8306C128.016 22.8306 125.949 20.6035 124.119 18.6336L124.103 18.6155L124.09 18.6016C122.324 16.6951 120.663 14.9018 117.349 14.9018C114.027 14.9018 112.35 16.7038 110.595 18.6155L110.579 18.6335C108.749 20.6035 106.681 22.8306 102.682 22.8306C98.6832 22.8306 96.6152 20.6035 94.786 18.6336L94.7692 18.6155L94.7564 18.6016C92.9905 16.6951 91.3296 14.9018 88.0157 14.9018C84.6937 14.9018 83.0171 16.7038 81.2621 18.6155L81.2452 18.6336C79.4161 20.6036 77.3482 22.8306 73.3647 22.8306C69.3689 22.8306 67.2849 20.5898 65.4516 18.6155L65.4387 18.6016C63.6728 16.6951 62.0119 14.9018 58.698 14.9018C55.3761 14.9018 53.6994 16.7038 51.9444 18.6155L51.9277 18.6336C50.0985 20.6035 48.0305 22.8306 44.0313 22.8306C40.0322 22.8306 37.9642 20.6035 36.135 18.6336L36.1182 18.6155L36.1054 18.6016C34.3395 16.6951 32.6786 14.9018 29.3647 14.9018C26.0427 14.9018 24.3661 16.7038 22.5954 18.6155L22.5787 18.6336C20.7495 20.6035 18.6815 22.8306 14.6823 22.8306C10.6832 22.8306 8.6152 20.6035 6.78601 18.6336L6.76923 18.6155L6.75641 18.6016C4.99055 16.6951 3.32955 14.9018 0 14.9018V13.3349C3.99917 13.3349 6.06714 15.562 7.89633 17.5319L7.91311 17.55L7.92592 17.5638C9.69179 19.4703 11.3528 21.2636 14.6823 21.2636C18.0119 21.2636 19.6729 19.4703 21.4388 17.5638L21.4516 17.55L21.4683 17.5319C23.2975 15.562 25.3655 13.3349 29.3647 13.3349C33.3638 13.3349 35.4318 15.562 37.261 17.5319L37.2778 17.55L37.2907 17.5639C39.0565 19.4704 40.7175 21.2636 44.0313 21.2636C47.3533 21.2636 49.0299 19.4616 50.7849 17.55L50.8017 17.5319C52.6309 15.562 54.6988 13.3349 58.698 13.3349C62.6972 13.3349 64.7651 15.5619 66.5943 17.5319L66.6111 17.55L66.624 17.5639C68.3898 19.4704 70.0508 21.2636 73.3647 21.2636C76.6786 21.2636 78.3395 19.4704 80.1053 17.5639L80.1182 17.55L80.135 17.5319C81.9642 15.562 84.0322 13.3349 88.0313 13.3349C92.0305 13.3349 94.0985 15.562 95.9277 17.5319L95.9444 17.55L95.9573 17.5639C97.7232 19.4704 99.3841 21.2636 102.698 21.2636C106.02 21.2636 107.697 19.4616 109.452 17.55L109.468 17.5319C111.298 15.562 113.366 13.3349 117.365 13.3349C121.364 13.3349 123.432 15.562 125.261 17.5319L125.278 17.55L125.291 17.5639C127.057 19.4704 128.717 21.2636 132.031 21.2636V22.8306H132.016ZM132.016 36.181C128.017 36.181 125.949 33.954 124.119 31.984L124.103 31.9659L124.09 31.9521C122.324 30.0455 120.663 28.2523 117.349 28.2523C114.027 28.2523 112.35 30.0543 110.595 31.9659L110.579 31.984C108.75 33.9539 106.682 36.181 102.682 36.181C98.671 36.181 96.6026 33.9403 94.7849 31.9659L94.7721 31.9521C93.0062 30.0455 91.3453 28.2523 88.0314 28.2523C84.7094 28.2523 83.0328 30.0543 81.2778 31.9659L81.261 31.9841C79.4318 33.954 77.3639 36.181 73.3804 36.181C69.3847 36.181 67.3006 33.9403 65.4673 31.9659L65.4544 31.952C63.6886 30.0455 62.0276 28.2523 58.7137 28.2523C55.3918 28.2523 53.7151 30.0543 51.9602 31.9659L51.9434 31.984C50.1142 33.9539 48.0462 36.181 44.047 36.181C40.0479 36.181 37.9799 33.9539 36.1507 31.984L36.1339 31.9659L36.1211 31.952C34.3552 30.0455 32.6943 28.2523 29.3804 28.2523C26.0584 28.2523 24.3818 30.0543 22.6112 31.9659L22.5944 31.984C20.7652 33.9539 18.6972 36.181 14.698 36.181C10.6989 36.181 8.6309 33.9539 6.80172 31.984L6.78494 31.9659L6.77213 31.9521C5.00626 30.0456 3.34526 28.2523 0.0157084 28.2523V26.6853C4.01488 26.6853 6.08285 28.9124 7.91204 30.8824L7.92881 30.9004L7.94163 30.9143C9.70749 32.8208 11.3685 34.6141 14.698 34.6141C18.0276 34.6141 19.6886 32.8208 21.4545 30.9143L21.4673 30.9004L21.484 30.8824C23.3132 28.9124 25.3812 26.6853 29.3804 26.6853C33.3796 26.6853 35.4475 28.9124 37.2767 30.8824L37.2935 30.9004L37.3064 30.9143C39.0722 32.8208 40.7332 34.6141 44.047 34.6141C47.369 34.6141 49.0456 32.8121 50.8006 30.9004L50.8174 30.8823C52.6466 28.9124 54.7146 26.6853 58.7137 26.6853C62.7129 26.6853 64.7808 28.9124 66.61 30.8823L66.6268 30.9004L66.6397 30.9143C68.4055 32.8208 70.0665 34.6141 73.3804 34.6141C76.6943 34.6141 78.3552 32.8208 80.1211 30.9143L80.1339 30.9004L80.1507 30.8823C81.9799 28.9124 84.0479 26.6853 88.047 26.6853C92.0462 26.6853 94.1142 28.9124 95.9434 30.8823L95.9602 30.9004L95.973 30.9143C97.7389 32.8208 99.3998 34.6141 102.714 34.6141C106.036 34.6141 107.712 32.8121 109.467 30.9004L109.484 30.8823C111.313 28.9124 113.381 26.6853 117.38 26.6853C121.38 26.6853 123.448 28.9124 125.277 30.8823L125.293 30.9004L125.306 30.9143C127.072 32.8208 128.733 34.6141 132.047 34.6141V36.181H132.016Z" fill="url(#paint0_linear_1_608)"/>
<defs>
<linearGradient id="paint0_linear_1_608" x1="66.0314" y1="-7.86318e-09" x2="66.0157" y2="41" gradientUnits="userSpaceOnUse">
<stop stop-color="#61E8EC"/>
<stop offset="1" stop-color="#362D1F" stop-opacity="0"/>
</linearGradient>
</defs>
</svg>
