<svg width="28" height="31" viewBox="0 0 28 31" fill="none" xmlns="http://www.w3.org/2000/svg">
<path d="M8 24.5C7.575 24.5 7.2185 24.356 6.9305 24.068C6.6435 23.781 6.5 23.425 6.5 23C6.5 22.575 6.6435 22.219 6.9305 21.932C7.2185 21.644 7.575 21.5 8 21.5C8.425 21.5 8.7815 21.644 9.0695 21.932C9.3565 22.219 9.5 22.575 9.5 23C9.5 23.425 9.3565 23.781 9.0695 24.068C8.7815 24.356 8.425 24.5 8 24.5ZM8 18.5C7.575 18.5 7.2185 18.356 6.9305 18.068C6.6435 17.781 6.5 17.425 6.5 17C6.5 16.575 6.6435 16.2185 6.9305 15.9305C7.2185 15.6435 7.575 15.5 8 15.5C8.425 15.5 8.7815 15.6435 9.0695 15.9305C9.3565 16.2185 9.5 16.575 9.5 17C9.5 17.425 9.3565 17.781 9.0695 18.068C8.7815 18.356 8.425 18.5 8 18.5ZM14 24.5C13.575 24.5 13.219 24.356 12.932 24.068C12.644 23.781 12.5 23.425 12.5 23C12.5 22.575 12.644 22.219 12.932 21.932C13.219 21.644 13.575 21.5 14 21.5C14.425 21.5 14.7815 21.644 15.0695 21.932C15.3565 22.219 15.5 22.575 15.5 23C15.5 23.425 15.3565 23.781 15.0695 24.068C14.7815 24.356 14.425 24.5 14 24.5ZM14 18.5C13.575 18.5 13.219 18.356 12.932 18.068C12.644 17.781 12.5 17.425 12.5 17C12.5 16.575 12.644 16.2185 12.932 15.9305C13.219 15.6435 13.575 15.5 14 15.5C14.425 15.5 14.7815 15.6435 15.0695 15.9305C15.3565 16.2185 15.5 16.575 15.5 17C15.5 17.425 15.3565 17.781 15.0695 18.068C14.7815 18.356 14.425 18.5 14 18.5ZM20 24.5C19.575 24.5 19.219 24.356 18.932 24.068C18.644 23.781 18.5 23.425 18.5 23C18.5 22.575 18.644 22.219 18.932 21.932C19.219 21.644 19.575 21.5 20 21.5C20.425 21.5 20.781 21.644 21.068 21.932C21.356 22.219 21.5 22.575 21.5 23C21.5 23.425 21.356 23.781 21.068 24.068C20.781 24.356 20.425 24.5 20 24.5ZM20 18.5C19.575 18.5 19.219 18.356 18.932 18.068C18.644 17.781 18.5 17.425 18.5 17C18.5 16.575 18.644 16.2185 18.932 15.9305C19.219 15.6435 19.575 15.5 20 15.5C20.425 15.5 20.781 15.6435 21.068 15.9305C21.356 16.2185 21.5 16.575 21.5 17C21.5 17.425 21.356 17.781 21.068 18.068C20.781 18.356 20.425 18.5 20 18.5ZM3.5 30.5C2.675 30.5 1.9685 30.2065 1.3805 29.6195C0.7935 29.0315 0.5 28.325 0.5 27.5V6.5C0.5 5.675 0.7935 4.969 1.3805 4.382C1.9685 3.794 2.675 3.5 3.5 3.5H5V0.5H8V3.5H20V0.5H23V3.5H24.5C25.325 3.5 26.0315 3.794 26.6195 4.382C27.2065 4.969 27.5 5.675 27.5 6.5V27.5C27.5 28.325 27.2065 29.0315 26.6195 29.6195C26.0315 30.2065 25.325 30.5 24.5 30.5H3.5ZM3.5 27.5H24.5V12.5H3.5V27.5ZM3.5 9.5H24.5V6.5H3.5V9.5Z" fill="#D6377F"/>
</svg>
